<svg width="178" height="50" viewBox="0 0 178 50" fill="none" xmlns="http://www.w3.org/2000/svg">
<path d="M170.016 36.7935C161.004 42.3109 156.125 44.2495 125.308 49.3382H178C178 49.3196 170.016 36.7935 170.016 36.7935Z" fill="#223F94"/>
<path d="M159.035 19.4229L155.735 14.3528C155.611 14.5392 140.957 36.2735 120.855 43.7109C133.079 43.5059 151.548 30.3087 158.255 24.6794C159.763 23.4119 160.65 21.9952 159.035 19.4229Z" fill="#099CBD"/>
<path d="M149.544 16.1237C150.998 13.8309 152.329 12.2279 152.311 10.1402C152.294 9.26412 152.027 8.42532 151.566 7.69835L146.67 0C146.67 0 123.641 39.9271 123.659 39.9084C134.055 35.3602 144.434 24.1762 149.544 16.1237Z" fill="#00AD9A"/>
<path d="M165.688 29.9358C165.688 29.9358 163.116 25.9095 163.08 25.9282C163.045 25.9468 163.009 25.9841 162.974 26.0027C151.779 34.3908 139.413 42.8534 119.472 47.1592C129.371 48.0726 156.764 40.4861 164.695 35.4346C167.09 34.0366 167.055 32.098 165.688 29.9358Z" fill="#2A70B7"/>
<path d="M11.5495 37.1869C9.9882 37.131 8.48016 37.7461 7.39793 38.9204C6.31569 40.1693 5.73022 41.8283 5.80119 43.5245C5.80119 45.5377 6.31569 47.1407 7.32696 48.2778C8.39146 49.4334 9.89949 50.0672 11.4253 49.9927C12.5785 50.0299 13.7317 49.7503 14.7607 49.1911L14.5123 47.6254C13.6075 48.0914 12.6139 48.3523 11.6027 48.3523C10.5382 48.4082 9.50917 47.9422 8.835 47.1034C8.14307 46.0969 7.80598 44.848 7.87695 43.6177C7.82373 42.3689 8.16082 41.1386 8.87048 40.1507C9.52692 39.2746 10.5559 38.79 11.6027 38.8459C12.5785 38.8645 13.5365 39.1628 14.3881 39.7033L14.9913 38.1748C13.9446 37.4852 12.7559 37.1496 11.5495 37.1869Z" fill="#223F94"/>
<path d="M20.7758 40.3183C19.5871 40.2437 18.4339 40.7097 17.6178 41.6045C16.8372 42.5924 16.4292 43.8599 16.5001 45.1461C16.4469 46.4322 16.8372 47.6811 17.6178 48.6691C18.3985 49.5638 19.5339 50.0484 20.6871 49.9925C21.8758 50.0671 23.029 49.5824 23.8451 48.6877C24.6435 47.6998 25.0338 46.4322 24.9806 45.1461C25.0338 43.8599 24.6435 42.611 23.8629 41.6231C23.0822 40.7284 21.9468 40.2437 20.7758 40.3183ZM22.5145 47.6252C22.1242 48.2217 21.45 48.5759 20.7581 48.5199C20.0662 48.5572 19.392 48.2217 18.9839 47.6252C18.5581 46.8796 18.3452 46.0222 18.3985 45.1461C18.3452 44.27 18.5581 43.3939 18.9839 42.6483C19.392 42.0518 20.0484 41.7163 20.7404 41.7536C21.4323 41.7163 22.1065 42.0518 22.5145 42.6483C22.9403 43.3939 23.1355 44.27 23.1 45.1461C23.1355 46.0222 22.9403 46.8796 22.5145 47.6252Z" fill="#223F94"/>
<path d="M42.9172 49.2284C43.5027 48.7065 43.8398 47.9236 43.7865 47.1221C43.8043 46.5256 43.6091 45.9291 43.2366 45.4817C42.7398 44.9784 42.1188 44.587 41.4624 44.382C41.3914 44.3447 41.3027 44.326 41.1963 44.2701C41.0898 44.2142 41.0189 44.1956 41.0011 44.1956C40.5044 44.0278 40.0253 43.8041 39.5818 43.5245C39.3157 43.3568 39.156 43.0399 39.1737 42.723C39.156 42.3875 39.3334 42.0706 39.5995 41.9028C39.9366 41.7164 40.3092 41.6419 40.6818 41.6605C41.5156 41.6791 42.3317 41.8842 43.0769 42.2383L43.5204 40.9149C42.6156 40.4862 41.6221 40.2811 40.6285 40.2998C39.7769 40.2439 38.9254 40.4862 38.2157 40.9708C37.648 41.3995 37.3286 42.1265 37.3641 42.8535C37.3286 43.45 37.5238 44.0092 37.8786 44.4752C38.3754 44.9784 38.9786 45.3512 39.635 45.5749C39.706 45.6122 39.8657 45.6681 40.0963 45.7613C40.6108 45.9477 41.1076 46.19 41.5511 46.4883C41.835 46.6933 41.9946 47.0289 41.9769 47.383C41.9946 47.7558 41.8172 48.11 41.5156 48.3337C40.9656 48.7251 39.9366 48.7251 38.7479 48.3896C38.3221 48.2591 37.8963 48.11 37.506 47.9049L37.3286 49.3216C38.2867 49.8062 39.3334 50.0299 40.3979 49.974C41.285 50.0485 42.1721 49.7876 42.9172 49.2284Z" fill="#223F94"/>
<path d="M49.6939 49.9928C50.6875 50.0487 51.6633 49.7318 52.4616 49.0981C53.1713 48.4457 53.5616 47.4764 53.4906 46.4885V40.5609H51.5923V46.3953C51.6455 46.9731 51.4858 47.5696 51.1488 48.0356C50.7584 48.4084 50.2439 48.5948 49.7294 48.5575C49.1972 48.5948 48.6827 48.4084 48.2924 48.0356C47.9553 47.5696 47.7779 46.9917 47.8311 46.3953V40.5609H45.915V46.4885C45.844 47.4764 46.2343 48.4457 46.944 49.0981C47.7424 49.7132 48.7182 50.0301 49.6939 49.9928Z" fill="#223F94"/>
<path d="M60.1087 49.8249L60.1619 49.8063L60.1087 48.5574C59.8249 48.5947 59.5233 48.632 59.2394 48.632C58.7604 48.6879 58.2813 48.4828 57.962 48.0914C57.6959 47.5136 57.5894 46.8798 57.6426 46.246V39.1255C57.6426 38.0817 56.8443 37.2056 55.833 37.187V46.2833C55.833 46.8425 55.8685 47.4204 55.9749 47.9609C56.0459 48.371 56.2056 48.7438 56.4362 49.0793C56.6669 49.3962 56.9685 49.6199 57.3233 49.7504C57.8023 49.9181 58.2991 49.9741 58.8136 49.9741C58.9733 49.9741 59.1329 49.9554 59.2926 49.9368C59.47 49.9181 59.612 49.8995 59.7361 49.8809C59.8603 49.8622 60.0023 49.8622 60.1087 49.8249Z" fill="#223F94"/>
<path d="M74.2129 49.3216C74.3016 49.5826 74.3371 49.7317 74.3725 49.8063H75.7564V43.7296C75.7564 42.518 75.4903 41.6419 74.958 41.12C74.4258 40.5981 73.5564 40.3185 72.3855 40.3185C71.25 40.2998 70.1323 40.5235 69.0856 40.9709C69.121 41.0827 69.192 41.2691 69.3162 41.6233C69.4226 41.9401 69.4936 42.1638 69.5468 42.2757C70.3984 41.9215 71.2855 41.7165 72.2081 41.6605C72.6693 41.6233 73.1129 41.7724 73.45 42.0893C73.7516 42.4621 73.9113 42.9467 73.858 43.45V44.0838L73.7516 44.1024C73.6096 44.121 73.4145 44.1397 73.1661 44.1583C72.9177 44.177 72.7048 44.1956 72.4919 44.2329C72.279 44.2702 72.1194 44.2702 71.9419 44.3074C70.9662 44.3447 70.0259 44.643 69.2097 45.1835C68.6065 45.6868 68.2694 46.4697 68.3404 47.2712C68.2872 48.0168 68.571 48.7624 69.0856 49.2843C69.6355 49.769 70.3275 50.0113 71.0371 49.974C71.5516 49.9927 72.0839 49.8808 72.5452 49.6571C73.0242 49.3962 73.45 49.0607 73.8403 48.6692C73.929 48.6319 74.0177 48.6692 74.0532 48.7624C74.0354 48.7811 74.0709 48.8929 74.2129 49.3216ZM73.8225 47.2712C73.6274 47.6813 73.3435 48.0168 72.9887 48.2405C72.5806 48.5201 72.1016 48.6506 71.6049 48.6319C71.2323 48.6506 70.842 48.5201 70.5581 48.2778C70.292 48.0168 70.15 47.6254 70.1855 47.2526C70.15 46.6934 70.3984 46.1528 70.8597 45.8546C71.4807 45.519 72.1548 45.3326 72.8468 45.314C72.8822 45.314 73.0242 45.2954 73.2903 45.2767C73.5742 45.2581 73.7161 45.2394 73.7338 45.2394H73.858L73.8225 47.2712Z" fill="#223F94"/>
<path d="M101.499 49.2284C102.085 48.7065 102.422 47.9236 102.369 47.1221C102.386 46.5256 102.191 45.9291 101.819 45.4817C101.322 44.9784 100.701 44.587 100.045 44.382C99.9736 44.3447 99.8849 44.326 99.7607 44.2701C99.6365 44.2328 99.5833 44.1956 99.5656 44.1956C99.0688 44.0278 98.5898 43.8041 98.1462 43.5245C97.8801 43.3568 97.7204 43.0399 97.7382 42.723C97.7204 42.3875 97.8979 42.0706 98.164 41.9028C98.5011 41.7164 98.8736 41.6419 99.2462 41.6605C100.08 41.6791 100.896 41.8842 101.641 42.2383L102.085 40.9149C101.18 40.4862 100.187 40.2811 99.193 40.2998C98.3414 40.2439 97.4898 40.4862 96.7801 40.9708C96.2124 41.3995 95.8931 42.1265 95.9286 42.8535C95.8931 43.45 96.0882 44.0092 96.4431 44.4752C96.9398 44.9784 97.543 45.3512 98.1995 45.5749C98.2704 45.6122 98.4301 45.6681 98.6607 45.7613C99.1753 45.9477 99.672 46.19 100.116 46.4883C100.399 46.6933 100.559 47.0289 100.541 47.383C100.559 47.7558 100.382 48.11 100.08 48.3337C99.5301 48.7251 98.5011 48.7251 97.3124 48.3896C96.8866 48.2591 96.4608 48.11 96.0705 47.9049L95.8931 49.3216C96.8511 49.8062 97.8979 50.0299 98.9624 49.974C99.8849 50.0485 100.772 49.7876 101.499 49.2284Z" fill="#223F94"/>
<path d="M8.4095 33.1981H12.9868V7.38157H21.3608V3.70947H0V7.38157H8.4095V33.1981Z" fill="#223F94"/>
<path d="M27.9253 13.7193L27.4108 14.67L26.9673 13.1042C26.6834 12.0417 25.8673 11.2775 24.8383 11.2775H22.9932V33.1982H27.3753V21.2686C27.3753 19.535 27.8189 17.8761 28.8834 16.5713C29.8946 15.4342 31.4204 14.8564 33.4252 14.8564C33.851 14.8564 34.2591 14.875 34.6849 14.9309L34.7381 11.2029C34.4542 11.1843 34.1349 11.1656 33.7623 11.1656C31.172 11.1656 29.2737 11.4266 27.9253 13.7193Z" fill="#223F94"/>
<path d="M42.7928 5.49868V5.10724H39.1558V9.71134C41.2138 9.48766 42.7928 7.67957 42.7928 5.49868Z" fill="#223F94"/>
<path d="M43.1654 11.2773H38.7832V33.198H43.1654V11.2773Z" fill="#223F94"/>
<path d="M60.9065 10.4197C58.0501 10.4197 56.3647 10.8484 54.0228 13.1411L53.3486 13.7936L53.047 12.6379C52.8696 11.8363 52.2309 11.2771 51.4503 11.2771H49.3213V33.1979H53.7035V22.5357C53.7035 20.8395 53.7035 19.5906 54.0938 17.4656C54.2889 16.72 55.3357 15.5457 56.276 14.9492C57.2518 14.3155 58.3872 13.98 59.5404 13.98C61.1017 13.98 62.2194 14.5019 62.8404 15.5271C63.4436 16.515 63.7274 17.9316 63.7452 19.8516V33.1979H68.1451V19.2178C68.1451 16.4404 67.5419 14.2968 66.3532 12.8615C64.9693 11.2399 62.9823 10.3638 60.9065 10.4197Z" fill="#223F94"/>
<path d="M32.0948 40.2068C30.7641 40.2068 29.8948 40.5237 29.1319 41.3811L28.848 41.6607L28.7239 41.1574C28.6529 40.8219 28.369 40.5796 28.0319 40.5796H27.1094V49.9928H28.99V45.4074C28.9722 44.6804 29.0255 43.9534 29.1497 43.2265C29.3626 42.7791 29.6819 42.4063 30.09 42.1454C30.5158 41.8658 30.9948 41.7353 31.4915 41.7353C32.0415 41.6793 32.5915 41.9217 32.9109 42.4063C33.1947 42.9842 33.3012 43.4688 33.3012 44.2703V49.9928H35.1995V43.9907C35.2705 43.0028 34.9866 42.0335 34.4366 41.2506C33.8334 40.5609 32.9818 40.2068 32.0948 40.2068Z" fill="#223F94"/>
<path d="M83.4917 40.2067C82.3917 40.0763 81.2918 40.5236 80.5289 41.3811L80.245 41.6607L80.1208 41.1574C80.0499 40.8219 79.766 40.5795 79.4289 40.5795H78.5063V49.9928H80.3869V45.4073C80.3692 44.6804 80.4224 43.9534 80.5466 43.2264C80.7595 42.7791 81.0789 42.4063 81.4869 42.1453C81.9127 41.8657 82.3917 41.7352 82.8885 41.7352C83.4385 41.6793 83.9885 41.9216 84.3078 42.4063C84.5917 42.9841 84.7336 43.6179 84.6982 44.2703V49.9928H86.5965V43.9907C86.6675 43.0027 86.3836 42.0335 85.8336 41.2506C85.2304 40.5609 84.3788 40.1695 83.4917 40.2067Z" fill="#223F94"/>
<path d="M78.0628 5.5732V5.18176H74.4258V9.78587C76.4838 9.58082 78.0628 7.7541 78.0628 5.5732Z" fill="#223F94"/>
<path d="M78.5062 11.2773H74.124V33.198H78.5062V11.2773Z" fill="#223F94"/>
<path d="M96.2832 33.1421L96.4429 33.1049L96.3365 30.0292C95.6623 30.1224 94.9881 30.1784 94.3139 30.1784C92.9123 30.1784 91.9188 29.7496 91.3688 28.9108C90.8543 28.1093 90.5882 26.8231 90.5882 24.9964V13.7564H95.9639V11.2773H90.5882V6.80369C90.5882 6.35633 90.4108 5.90897 90.1092 5.59209C89.7898 5.27521 89.3818 5.08881 88.956 5.08881L86.206 5.10745V11.2773H82.6577V13.7564H86.206V24.9032C86.1883 26.208 86.2947 27.4942 86.5431 28.7804C86.7383 29.731 87.1108 30.6257 87.6431 31.4086C88.1753 32.1542 88.9205 32.6948 89.7543 32.993C90.9075 33.3658 92.0962 33.5522 93.3026 33.5149C93.6575 33.5149 94.0478 33.4963 94.4558 33.459C94.8639 33.4217 95.201 33.3845 95.4671 33.3285C95.7155 33.2726 95.9994 33.2167 96.2832 33.1421Z" fill="#223F94"/>
<path d="M93.8708 49.8438L93.9418 49.8252L93.8886 48.5576C93.6047 48.5949 93.3208 48.6135 93.0547 48.6135C92.5934 48.6695 92.1321 48.4644 91.8305 48.0916C91.5822 47.5883 91.4757 47.0291 91.5112 46.4699V41.8099H93.7289V40.7847H91.5112V38.9393C91.5112 38.7529 91.4402 38.5665 91.316 38.4361C91.1918 38.3056 91.0144 38.231 90.837 38.231H89.7016V40.7847H88.229V41.8099H89.7016V46.4327C89.6838 46.9732 89.737 47.5138 89.8435 48.0357C89.9144 48.4271 90.0741 48.7999 90.3048 49.1168C90.5177 49.4151 90.837 49.6574 91.1741 49.7692C91.6531 49.9183 92.1499 49.9929 92.6467 49.9929C92.7886 49.9929 92.9483 49.9929 93.1257 49.9743C93.3031 49.9556 93.4273 49.937 93.5337 49.9184C93.6402 49.8811 93.7466 49.8624 93.8708 49.8438Z" fill="#223F94"/>
<path d="M66.3181 49.8438L66.3891 49.8252L66.3358 48.5576C66.052 48.5949 65.7681 48.6135 65.502 48.6135C65.0407 48.6695 64.5794 48.4644 64.2778 48.0916C64.0294 47.5883 63.923 47.0291 63.9585 46.4699V41.8099H66.1762V40.7847H63.9585V38.9393C63.9585 38.7529 63.8875 38.5665 63.7633 38.4361C63.6391 38.3056 63.4617 38.231 63.2843 38.231H62.1488V40.7847H60.6763V41.8099H62.1488V46.4327C62.1311 46.9732 62.1843 47.5138 62.2907 48.0357C62.3617 48.4271 62.5214 48.7999 62.752 49.1168C62.9649 49.4151 63.2843 49.6574 63.6214 49.7692C64.1004 49.9183 64.5972 49.9929 65.0939 49.9929C65.2359 49.9929 65.3955 49.9929 65.5729 49.9743C65.7504 49.9556 65.8746 49.937 65.981 49.9184C66.0697 49.8997 66.1939 49.8624 66.3181 49.8438Z" fill="#223F94"/>
<path d="M120.324 11.2773H115.64L113.316 18.3419C111.861 22.7596 110.921 25.8352 110.495 27.4569L110.176 28.7058L104.161 11.2773H99.4951L108.011 33.2539L107.993 33.3285L104.729 43.6178H109.005L111.506 35.7517C111.985 34.4283 114.913 26.2825 120.324 11.2773Z" fill="#223F94"/>
</svg>
