<svg width="58" height="49" viewBox="0 0 58 49" fill="none" xmlns="http://www.w3.org/2000/svg">
<path d="M50.0884 36.5412C41.157 42.0208 36.3221 43.9461 5.7832 49H58C58 48.9815 50.0884 36.5412 50.0884 36.5412Z" fill="#223F94"/>
<path d="M39.2068 19.2897L35.9366 14.2544C35.8136 14.4395 21.2913 36.0249 1.37158 43.4113C13.4852 43.2076 31.7874 30.1009 38.4332 24.5102C39.9276 23.2514 40.8067 21.8444 39.2068 19.2897Z" fill="#099CBD"/>
<path d="M29.8002 16.0131C31.2419 13.7361 32.5605 12.1441 32.5429 10.0707C32.5253 9.20062 32.2616 8.36756 31.8045 7.64558L26.952 0C26.952 0 4.13135 39.6534 4.14894 39.6348C14.4516 35.1178 24.7368 24.0105 29.8002 16.0131Z" fill="#00AD9A"/>
<path d="M45.7996 29.7306C45.7996 29.7306 43.2503 25.7319 43.2151 25.7504C43.18 25.7689 43.1448 25.806 43.1096 25.8245C32.0158 34.155 19.7615 42.5596 0 46.8359C9.81043 47.743 36.9561 40.2085 44.815 35.1917C47.1885 33.8033 47.1533 31.878 45.7996 29.7306Z" fill="#2A70B7"/>
</svg>
